<?xml version="1.0" encoding="UTF-8" standalone="no"?>
<svg
   xmlns:dc="http://purl.org/dc/elements/1.1/"
   xmlns:cc="http://creativecommons.org/ns#"
   xmlns:rdf="http://www.w3.org/1999/02/22-rdf-syntax-ns#"
   xmlns:svg="http://www.w3.org/2000/svg"
   xmlns="http://www.w3.org/2000/svg"
   height="946.09045"
   width="1000"
   version="1.0"
   viewBox="0 0 999.99997 946.09044"
   id="svg2">
  <defs
     id="defs11" />
  <g
     transform="matrix(2.1556928,0,0,2.1556928,-91.272033,-595.70415)"
     id="layer1">
    <path
       d="m 437.15,499.44 z m 0,0 L 274.33,355.25 111.43,499.5 v 206.12 c 0,5.33 4.3,9.6 9.62,9.6 h 101.81 v -90.38 c 0,-5.32 4.27,-9.62 9.6,-9.62 h 83.65 c 5.33,0 9.6,4.3 9.6,9.62 v 90.38 h 101.84 c 5.32,0 9.6,-4.27 9.6,-9.6 z m -325.72,0.06 z"
       id="rect2391" />
    <path
       d="m 273.39,276.34 -231.05,204.59 24.338,27.45 207.65,-183.88 207.61,183.88 24.29,-27.45 -231,-204.59 -0.9,1.04 -0.94,-1.04 z"
       id="path2399" />
    <path
       d="M 111.43,305.79 H 170 l -0.51,34.69 -58.06,52.45 z"
       id="rect2404" />
  </g>
  <metadata
     id="metadata6">
    <rdf:RDF>
      <cc:Work>
        <dc:format>image/svg+xml</dc:format>
        <dc:type
           rdf:resource="http://purl.org/dc/dcmitype/StillImage" />
        <cc:license
           rdf:resource="http://creativecommons.org/licenses/publicdomain/" />
        <dc:publisher>
          <cc:Agent
             rdf:about="http://openclipart.org/">
            <dc:title>Openclipart</dc:title>
          </cc:Agent>
        </dc:publisher>
        <dc:title></dc:title>
        <dc:date>2008-10-08T17:41:00</dc:date>
        <dc:description>black home icon</dc:description>
        <dc:source>http://openclipart.org/detail/19535/home-by-dynnamitt</dc:source>
        <dc:creator>
          <cc:Agent>
            <dc:title>dynnamitt</dc:title>
          </cc:Agent>
        </dc:creator>
        <dc:subject>
          <rdf:Bag>
            <rdf:li>clip art</rdf:li>
            <rdf:li>clipart</rdf:li>
            <rdf:li>home</rdf:li>
            <rdf:li>house</rdf:li>
            <rdf:li>icon</rdf:li>
            <rdf:li>image</rdf:li>
            <rdf:li>media</rdf:li>
            <rdf:li>png</rdf:li>
            <rdf:li>public domain</rdf:li>
            <rdf:li>silhouette</rdf:li>
            <rdf:li>svg</rdf:li>
          </rdf:Bag>
        </dc:subject>
      </cc:Work>
      <cc:License
         rdf:about="http://creativecommons.org/licenses/publicdomain/">
        <cc:permits
           rdf:resource="http://creativecommons.org/ns#Reproduction" />
        <cc:permits
           rdf:resource="http://creativecommons.org/ns#Distribution" />
        <cc:permits
           rdf:resource="http://creativecommons.org/ns#DerivativeWorks" />
      </cc:License>
    </rdf:RDF>
  </metadata>
</svg>
